<svg width="58" height="56" xmlns="http://www.w3.org/2000/svg" xmlns:xlink="http://www.w3.org/1999/xlink" xml:space="preserve" overflow="hidden"><g transform="translate(-614 -294)"><g><g><g><g><path d="M44.1146 45.2604 44.1146 10.8854C44.1146 7.53615 35.5546 5.72917 27.5 5.72917 19.4454 5.72917 10.8854 7.53615 10.8854 10.8854L10.8854 45.2604C10.8854 48.6097 19.4454 50.4167 27.5 50.4167 35.5546 50.4167 44.1146 48.6097 44.1146 45.2604ZM27.5 6.875C36.3533 6.875 42.9688 8.99479 42.9688 10.8854 42.9688 12.776 36.3533 14.8958 27.5 14.8958 18.6467 14.8958 12.0312 12.776 12.0312 10.8854 12.0312 8.99479 18.6467 6.875 27.5 6.875ZM12.0312 12.8677C14.626 14.9417 21.2168 16.0417 27.5 16.0417 33.7832 16.0417 40.374 14.9417 42.9688 12.8677L42.9688 22.3438C42.9688 24.2344 36.3533 26.3542 27.5 26.3542 18.6467 26.3542 12.0312 24.2344 12.0312 22.3438ZM12.0312 24.326C14.626 26.4 21.2168 27.5 27.5 27.5 33.7832 27.5 40.374 26.4 42.9688 24.326L42.9688 33.8021C42.9688 35.6927 36.3533 37.8125 27.5 37.8125 18.6467 37.8125 12.0312 35.6927 12.0312 33.8021ZM12.0312 45.2604 12.0312 35.7844C14.626 37.8583 21.2168 38.9583 27.5 38.9583 33.7832 38.9583 40.374 37.8583 42.9688 35.7844L42.9688 45.2604C42.9688 47.151 36.3533 49.2708 27.5 49.2708 18.6467 49.2708 12.0312 47.151 12.0312 45.2604Z" fill="#000000" fill-rule="nonzero" fill-opacity="1" transform="matrix(1.01818 0 0 1 615 295)"/><path d="M40.1042 20.625C40.1042 21.2578 39.5912 21.7708 38.9583 21.7708 38.3255 21.7708 37.8125 21.2578 37.8125 20.625 37.8125 19.9922 38.3255 19.4792 38.9583 19.4792 39.5912 19.4792 40.1042 19.9922 40.1042 20.625Z" fill="#000000" fill-rule="nonzero" fill-opacity="1" transform="matrix(1.01818 0 0 1 615 295)"/><path d="M40.1042 32.0833C40.1042 32.7162 39.5912 33.2292 38.9583 33.2292 38.3255 33.2292 37.8125 32.7162 37.8125 32.0833 37.8125 31.4505 38.3255 30.9375 38.9583 30.9375 39.5912 30.9375 40.1042 31.4505 40.1042 32.0833Z" fill="#000000" fill-rule="nonzero" fill-opacity="1" transform="matrix(1.01818 0 0 1 615 295)"/><path d="M40.1042 43.5417C40.1042 44.1745 39.5912 44.6875 38.9583 44.6875 38.3255 44.6875 37.8125 44.1745 37.8125 43.5417 37.8125 42.9088 38.3255 42.3958 38.9583 42.3958 39.5912 42.3958 40.1042 42.9088 40.1042 43.5417Z" fill="#000000" fill-rule="nonzero" fill-opacity="1" transform="matrix(1.01818 0 0 1 615 295)"/></g></g></g></g></g></svg>