<svg width="64" height="58" xmlns="http://www.w3.org/2000/svg" xmlns:xlink="http://www.w3.org/1999/xlink" xml:space="preserve" overflow="hidden"><g transform="translate(-700 -294)"><g><g><g><g><path d="M37.9167 26.8333 28.5833 26.8333 28.5833 11.0833 18.0833 11.0833 18.0833 12.25 27.4167 12.25 27.4167 26.8333 18.0833 26.8333 18.0833 28 27.4167 28 27.4167 42.5833 18.0833 42.5833 18.0833 43.75 28.5833 43.75 28.5833 28 37.9167 28 37.9167 26.8333Z" stroke="#FFFFFF" stroke-width="0.5833" stroke-linecap="butt" stroke-linejoin="miter" stroke-miterlimit="4" stroke-opacity="1" fill="#FFFFFF" fill-rule="nonzero" fill-opacity="1" transform="matrix(1.10714 0 0 1 701 295)"/><path d="M15.1667 14.5833 9.33333 14.5833 9.33333 8.75 15.1667 8.75ZM8.16667 7.58333 8.16667 15.75 16.3333 15.75 16.3333 7.58333Z" stroke="#FFFFFF" stroke-width="0.5833" stroke-linecap="butt" stroke-linejoin="miter" stroke-miterlimit="4" stroke-opacity="1" fill="#FFFFFF" fill-rule="nonzero" fill-opacity="1" transform="matrix(1.10714 0 0 1 701 295)"/><path d="M15.1667 30.3333 9.33333 30.3333 9.33333 24.5 15.1667 24.5ZM8.16667 23.3333 8.16667 31.5 16.3333 31.5 16.3333 23.3333Z" stroke="#FFFFFF" stroke-width="0.5833" stroke-linecap="butt" stroke-linejoin="miter" stroke-miterlimit="4" stroke-opacity="1" fill="#FFFFFF" fill-rule="nonzero" fill-opacity="1" transform="matrix(1.10714 0 0 1 701 295)"/><path d="M15.1667 46.0833 9.33333 46.0833 9.33333 40.25 15.1667 40.25ZM8.16667 39.0833 8.16667 47.25 16.3333 47.25 16.3333 39.0833Z" stroke="#FFFFFF" stroke-width="0.5833" stroke-linecap="butt" stroke-linejoin="miter" stroke-miterlimit="4" stroke-opacity="1" fill="#FFFFFF" fill-rule="nonzero" fill-opacity="1" transform="matrix(1.10714 0 0 1 701 295)"/><path d="M46.6667 30.3333 40.8333 30.3333 40.8333 24.5 46.6667 24.5ZM39.6667 23.3333 39.6667 31.5 47.8333 31.5 47.8333 23.3333Z" stroke="#FFFFFF" stroke-width="0.5833" stroke-linecap="butt" stroke-linejoin="miter" stroke-miterlimit="4" stroke-opacity="1" fill="#FFFFFF" fill-rule="nonzero" fill-opacity="1" transform="matrix(1.10714 0 0 1 701 295)"/></g></g></g></g></g></svg>