<svg width="61" height="60" xmlns="http://www.w3.org/2000/svg" xmlns:xlink="http://www.w3.org/1999/xlink" xml:space="preserve" overflow="hidden"><g transform="translate(-808 -292)"><g><g><g><g><path d="M9.83333 8.60417 8.60417 8.60417 8.60417 50.3958 50.3774 50.3958 50.3774 49.1667 9.83333 49.1667 9.83333 8.60417Z" fill="#ffffff" fill-rule="nonzero" fill-opacity="1" transform="matrix(1.01695 0 0 1 809 293)"/><path d="M37.4896 36.875C34.4505 36.875 32.3455 31.412 30.3094 26.129 28.1762 20.5935 26.161 15.3646 22.7396 15.3646 18.2218 15.3646 16.8353 20.9985 15.6104 25.9692L15.3824 26.8911 16.5747 27.1898 16.8046 26.2618C17.9206 21.7304 19.1854 16.5938 22.7396 16.5938 25.3171 16.5938 27.2721 21.6659 29.1626 26.5709 31.3474 32.241 33.6073 38.1042 37.4896 38.1042 42.177 38.1042 44.2285 28.4657 44.7798 25.276 44.7798 25.2698 44.7878 25.2698 44.7908 25.276L47.4053 29.8073 48.4697 29.1927 44.7822 22.8047 38.4115 26.4812 39.026 27.5456 43.585 24.9164C43.5872 24.9143 43.5907 24.9142 43.5928 24.9164 43.5943 24.9179 43.5949 24.92 43.5942 24.922 42.9305 28.824 40.8636 36.875 37.4896 36.875Z" fill="#ffffff" fill-rule="nonzero" fill-opacity="1" transform="matrix(1.01695 0 0 1 809 293)"/></g></g></g></g></g></svg>