<svg width="18" height="19" xmlns="http://www.w3.org/2000/svg" xmlns:xlink="http://www.w3.org/1999/xlink" xml:space="preserve" overflow="hidden"><g transform="translate(-698 -402)"><g><g><g><g><path d="M4.83314 9.10987 4.83579 9.10987C4.88892 9.10987 6.15577 9.08685 6.77946 8.7573 6.78477 8.75429 6.79026 8.7511 6.7954 8.74774 7.05388 8.5581 7.29716 8.34856 7.52303 8.12104 7.56376 8.08226 7.60307 8.0449 7.6415 8.00877 7.87591 8.08564 8.11955 8.13066 8.36595 8.14264 8.41146 8.14477 8.45697 8.14583 8.50212 8.14583 8.74726 8.14528 8.9913 8.11304 9.22817 8.04985 9.26057 8.08014 9.29333 8.11095 9.32857 8.14424 9.54373 8.35584 9.7716 8.55412 10.0109 8.738 10.5903 9.15751 12.0394 8.84159 12.2028 8.80423 12.2715 8.78783 12.324 8.73216 12.3362 8.66256 12.348 8.59201 12.3169 8.52116 12.257 8.48211 12.2533 8.47981 11.8943 8.23756 11.6636 7.32558 11.588 7.02968 11.719 6.43609 11.8584 5.80763 12.0106 5.22077 12.1034 4.62009 12.1353 4.01466 12.1353 3.11596 11.8697 2.56558 11.3004 2.28296 11.0071 2.16906 10.6856 2.14969 10.3808 2.22753 10.2214 2.01344 9.79749 1.56258 8.90924 1.2858 7.94982 1.02194 6.92463 1.15412 6.06351 1.65272 5.32224 2.13084 4.96666 2.66564 4.95019 4.40548 4.94346 5.13896 4.98667 5.82215 5.02492 6.42547 5.07647 6.92449 5.08505 7.427 5.05059 7.92749 5.00935 8.25336 4.88548 8.56325 4.69076 8.82778 4.63277 8.90653 4.64959 9.01738 4.72834 9.07538 4.75851 9.0976 4.79496 9.10968 4.83243 9.10987ZM8.38224 7.78883C7.11602 7.71993 6.10252 6.71284 6.02561 5.44708 6.02128 5.36143 6.02128 5.27561 6.02561 5.18996 6.0339 5.00994 6.17897 4.86641 6.35906 4.86005 6.48658 4.85798 6.61374 4.84613 6.73944 4.82464 7.31521 4.74858 7.877 4.59 8.40756 4.35377 8.99086 4.06029 9.53238 3.69029 10.0178 3.25355 10.0618 3.52947 10.1599 3.79396 10.3064 4.03183 10.3098 4.03752 10.3136 4.04295 10.3178 4.04812 10.3878 4.13166 10.4689 4.20529 10.5588 4.267L10.5876 4.28878C10.621 4.31467 10.6518 4.34373 10.6795 4.37555 10.8446 4.56524 10.945 4.80254 10.9662 5.05307 10.9751 5.13926 10.9794 5.22585 10.9792 5.3125 10.9791 6.68171 9.86917 7.79165 8.49996 7.79163 8.4607 7.79163 8.42145 7.79069 8.38224 7.78883ZM5.37855 6.40298C5.34066 5.80603 5.29763 5.12922 5.30435 4.40867 5.31941 2.82147 5.61 2.36743 6.24768 1.95518 7.02327 1.50757 7.94564 1.38872 8.80936 1.62509 9.82388 1.94119 10.1426 2.50661 10.1453 2.51051 10.1849 2.58547 10.272 2.62184 10.3532 2.59728 10.4892 2.55637 10.8963 2.47669 11.1423 2.59887 11.4394 2.74621 11.7798 3.04034 11.7798 4.01235 11.747 4.59237 11.6571 5.16775 11.5111 5.73006 11.3565 6.4299 11.223 7.03446 11.3195 7.41235 11.4061 7.81033 11.5711 8.18706 11.8049 8.52054 11.3002 8.60359 10.5226 8.67212 10.2177 8.45148 10.0036 8.28676 9.79951 8.10935 9.60659 7.92023 10.6536 7.47655 11.3336 6.4496 11.3333 5.3125 11.3333 5.21349 11.3283 5.11456 11.3181 5.01606 11.2891 4.6911 11.1576 4.38375 10.9425 4.13844 10.8996 4.08983 10.8522 4.04542 10.8008 4.0058L10.7706 3.98314C10.709 3.94108 10.6526 3.89206 10.6023 3.83704 10.4781 3.63262 10.3966 3.40515 10.3627 3.16838 10.3356 2.98454 10.1645 2.85754 9.98072 2.88471 9.91217 2.89483 9.84844 2.92588 9.7982 2.97358 9.33399 3.39433 8.81519 3.75059 8.2558 4.03272 7.75611 4.25421 7.2272 4.40277 6.68525 4.47383 6.57448 4.49298 6.46243 4.50357 6.35003 4.50553 5.98476 4.51708 5.68953 4.80707 5.67145 5.17207 5.66684 5.26982 5.66702 5.36828 5.67145 5.46515 5.73435 6.49667 6.34991 7.41363 7.28078 7.8625L7.27883 7.86445C7.0692 8.07551 6.84429 8.27084 6.60592 8.44882 6.23404 8.64131 5.5636 8.71445 5.16162 8.74083 5.2862 8.5022 5.36727 8.24326 5.40104 7.97619 5.44094 7.45218 5.43341 6.92564 5.37855 6.40298Z" fill="#000000" fill-rule="nonzero" fill-opacity="1" transform="matrix(1 0 0 1.05882 699 403)"/><path d="M13.5527 10.5409C12.7399 9.91513 11.8087 9.46057 10.8154 9.20461 10.5866 9.13608 10.3562 9.07694 10.1308 9.02877L10.041 9.00947 9.97351 9.07198C9.25189 9.73958 8.76279 9.73958 8.5 9.73958 8.23721 9.73958 7.74403 9.73958 7.02596 9.08083L6.95884 9.01921 6.8703 9.03798C6.65337 9.08367 6.42423 9.13945 6.18729 9.20408 5.20588 9.4917 4.28019 9.94326 3.44941 10.5396 3.06848 10.8381 2.84221 11.2922 2.83333 11.776L2.83333 14.5208 3.1875 14.5208 3.1875 11.776C3.19531 11.4026 3.36995 11.0522 3.6635 10.8212 4.45857 10.2521 5.34386 9.82104 6.28221 9.54621 6.47877 9.49308 6.67179 9.44492 6.85507 9.40454 7.54375 10.01 8.07217 10.0938 8.5 10.0938 8.92783 10.0938 9.45342 10.0089 10.1451 9.39445 10.333 9.43695 10.5241 9.48706 10.7158 9.54461 11.6641 9.78777 12.5533 10.2203 13.3299 10.8162 13.6269 11.0474 13.8041 11.3998 13.8125 11.776L13.8125 14.5208 14.1667 14.5208 14.1667 11.776C14.1581 11.293 13.9326 10.8394 13.5527 10.5409Z" fill="#000000" fill-rule="nonzero" fill-opacity="1" transform="matrix(1 0 0 1.05882 699 403)"/></g></g></g></g></g></svg>