<svg width="18" height="17" xmlns="http://www.w3.org/2000/svg" xmlns:xlink="http://www.w3.org/1999/xlink" xml:space="preserve" overflow="hidden"><g transform="translate(-672 -412)"><g><path d="M5.11452 5.36562C5.22679 5.36704 5.355 5.36686 5.49224 5.36562 5.52206 6.92916 6.81374 8.1725 8.37728 8.14268 9.90693 8.1135 11.1368 6.87455 11.1547 5.34473 11.2062 5.17012 11.5341 3.97747 11.1401 3.22327 10.8865 2.69128 10.3402 2.3616 9.75127 2.38514 9.46174 2.15599 8.24783 1.33751 6.54093 2.14342 5.14197 2.80341 5.10142 4.25071 5.10319 4.46799L4.94381 5.14887C4.9215 5.24409 4.98061 5.33938 5.07585 5.36168 5.0884 5.36462 5.10126 5.36619 5.11417 5.36633ZM8.32292 7.79167C6.97122 7.78975 5.8698 6.70613 5.84587 5.35465 6.50799 5.3272 7.2891 5.24131 7.78051 5.00916 8.4235 4.70564 9.23614 4.02192 9.49184 3.79985 9.73732 3.91301 9.95461 4.0792 10.1281 4.28648 10.2731 4.4637 10.3986 4.656 10.5025 4.86005 10.5853 5.00792 10.6795 5.17508 10.7996 5.36049 10.7726 6.7096 9.67229 7.78972 8.32292 7.79167ZM5.4531 4.5259C5.45666 4.51063 5.4582 4.49498 5.45771 4.47932 5.45594 4.42159 5.42548 3.06053 6.69216 2.46252 7.10389 2.25903 7.55592 2.15013 8.01515 2.14377 8.58381 2.13628 9.13646 2.33215 9.57348 2.69609 9.61377 2.73417 9.66946 2.75131 9.72418 2.74249 10.1907 2.70061 10.6327 2.95862 10.8256 3.38548 11.0466 3.80853 10.9829 4.44214 10.9053 4.85332 10.872 4.79524 10.8409 4.73963 10.8109 4.68633 10.6956 4.46069 10.556 4.24825 10.3948 4.05273 10.1614 3.76171 9.84907 3.54413 9.49521 3.42603 9.4387 3.41247 9.37915 3.4275 9.33583 3.46623 9.32592 3.47508 8.3408 4.35342 7.63017 4.6881 7.05341 4.96028 5.95921 5.00685 5.3403 5.01075Z" fill="#000000" fill-rule="nonzero" fill-opacity="1" transform="matrix(1.05882 0 0 1 672 412)"/><path d="M13.5527 10.5409C12.7399 9.91513 11.8087 9.46057 10.8154 9.20461 10.5866 9.13608 10.3562 9.07694 10.1308 9.02877L10.041 9.00947 9.97351 9.07198C9.25189 9.73958 8.76279 9.73958 8.5 9.73958 8.23721 9.73958 7.74403 9.73958 7.02596 9.08083L6.95884 9.01921 6.8703 9.03798C6.65337 9.08367 6.42423 9.13945 6.18729 9.20408 5.20588 9.4917 4.28019 9.94326 3.44941 10.5396 3.06848 10.8381 2.84221 11.2922 2.83333 11.776L2.83333 14.5208 3.1875 14.5208 3.1875 11.776C3.19531 11.4026 3.36995 11.0522 3.6635 10.8212 4.45857 10.2521 5.34386 9.82104 6.28221 9.54621 6.47877 9.49308 6.67179 9.44492 6.85507 9.40454 7.54375 10.01 8.07217 10.0938 8.5 10.0938 8.92783 10.0938 9.45342 10.0089 10.1451 9.39445 10.333 9.43695 10.5241 9.48706 10.7158 9.54461 11.6641 9.78777 12.5533 10.2203 13.3299 10.8162 13.6269 11.0474 13.8041 11.3998 13.8125 11.776L13.8125 14.5208 14.1667 14.5208 14.1667 11.776C14.1581 11.293 13.9326 10.8394 13.5527 10.5409Z" fill="#000000" fill-rule="nonzero" fill-opacity="1" transform="matrix(1.05882 0 0 1 672 412)"/></g></g></svg>